<svg xmlns="http://www.w3.org/2000/svg" width="885.584" height="762.892" viewBox="0 0 885.584 762.892">
  <g id="undraw_mello_otq1" transform="translate(0 0)">
    <path id="Path_1" data-name="Path 1" d="M376.948,313.578s-94.716,32.622-112.88,62.735S376.948,313.578,376.948,313.578Z" transform="translate(-157.206 -68.554)" fill="#193566"/>
    <path id="Path_2" data-name="Path 2" d="M213.3,418a4.616,4.616,0,0,1-3.593-1.326c-2.947-2.654-.538-7.672,1.528-11.217,27.71-47.5,167.04-97.558,172.956-99.665l12.742-4.538-10.91,7.993c-.4.3-40.936,29.965-82.431,57.917C239.079,410.618,219.927,418,213.3,418ZM371.8,314.667c-36.585,14.161-135.179,55.1-157.158,92.779-2.927,5.017-2.308,6.277-2.3,6.288.592.639,8.08,4.649,88.552-49.526C328.951,345.323,356.626,325.6,371.8,314.667Z" transform="translate(-157.206 -68.554)" fill="#3f3d56"/>
    <path id="Path_3" data-name="Path 3" d="M374.895,280.994s-87.284-8.972-113.763,6.36S374.895,280.994,374.895,280.994Z" transform="translate(-157.206 -68.554)" fill="#193566"/>
    <path id="Path_4" data-name="Path 4" d="M255.955,295.659c-30.553,0-32.65-4.9-33.611-7.137-1.92-4.481,3.423-8.7,5.179-10.086,37.886-29.912,152.959.316,157.839,1.617l9.359,2.5-9.589,1.369c-.386.055-38.941,5.539-77.849,8.972C284.591,294.892,268.044,295.659,255.955,295.659ZM282.729,269.3c-21.52,0-41.207,3.117-52.756,12.236-3.485,2.751-4.35,4.607-4,5.427.886,2.065,9.34,8.309,80.958,1.99,26.688-2.355,53.207-5.677,67.292-7.54C356.181,277.259,317.114,269.3,282.729,269.3Z" transform="translate(-157.206 -68.554)" fill="#3f3d56"/>
    <path id="Path_5" data-name="Path 5" d="M399.874,265.621S355.97,160.2,366.608,149.768,399.874,265.621,399.874,265.621Z" transform="translate(-157.206 -68.554)" fill="#193566"/>
    <path id="Path_6" data-name="Path 6" d="M402.3,274.894l-5.459-13.949c-.133-.342-13.491-34.558-24.5-69.784-22.672-72.549-13.379-78.744-10.326-80.78a5.14,5.14,0,0,1,5.247-.443c17.124,7.979,31.769,135.549,33.382,150.069ZM365.026,113.373a1.466,1.466,0,0,0-.814.3c-10.911,7.274,11.208,78.888,30.651,131.011-6.669-53.746-18.949-126.353-29.266-131.161a1.342,1.342,0,0,0-.571-.145Z" transform="translate(-157.206 -68.554)" fill="#3f3d56"/>
    <path id="Path_7" data-name="Path 7" d="M416.468,288.8s23.564-106.554,48.251-106.554S416.468,288.8,416.468,288.8Z" transform="translate(-157.206 -68.554)" fill="#193566"/>
    <path id="Path_8" data-name="Path 8" d="M410.251,296.156l2.331-8.773c1.712-6.434,42.4-157.573,86.878-157.573,6.1,0,8.728,2.861,9.863,5.26,11.86,25.118-82.506,140.95-93.3,154.075ZM499.46,133.762c-35.5,0-70.793,112.209-80.47,145.466,31.842-39.562,95.309-124.36,86.759-142.47C505.4,136.017,504.334,133.762,499.46,133.762Z" transform="translate(-157.206 -68.554)" fill="#3f3d56"/>
    <path id="Path_9" data-name="Path 9" d="M430.3,289.866s81.016-51.2,247-35.568S430.3,289.866,430.3,289.866Z" transform="translate(-157.206 -68.554)" fill="#193566"/>
    <path id="Path_10" data-name="Path 10" d="M424.773,292l4.241-3.636c.859-.736,21.512-18.194,62.894-32.233,38.081-12.922,101.56-25.095,187.714-9.707,36.4,6.5,41.125,11.344,40.809,15.609-.313,4.214-1.046,14.085-146.479,23.235-71.068,4.471-142.88,6.551-143.6,6.572ZM601.432,243.19c-93.582,0-148.908,33.251-164.95,44.508,18.99-.608,78.368-2.67,137.232-6.374,135.14-8.5,142.644-17.8,142.776-19.582.015-.19-.085-4.734-37.561-11.427a440.494,440.494,0,0,0-77.5-7.125Z" transform="translate(-157.206 -68.554)" fill="#3f3d56"/>
    <path id="Path_11" data-name="Path 11" d="M481.676,295.87s141.911-1.895,149.884,13.259S481.676,295.87,481.676,295.87Z" transform="translate(-157.206 -68.554)" fill="#193566"/>
    <path id="Path_12" data-name="Path 12" d="M649.733,334.59c-45.3,0-154.178-32.526-168.63-36.905L469.26,294.1l12.371-.278c18.153-.406,177.641-3.06,187.674,29.049,1.189,3.8-.189,6.243-1.555,7.621C664.894,333.37,658.505,334.59,649.733,334.59Zm-155.113-37c66.565,19.509,158.993,41.552,170.324,30.118.614-.619,1.235-1.595.591-3.66C658.407,301.236,549.63,297.216,494.62,297.589Z" transform="translate(-157.206 -68.554)" fill="#3f3d56"/>
    <path id="Path_13" data-name="Path 13" d="M454.012,311.6s85.715,39.618,68.966,51.808S454.012,311.6,454.012,311.6Z" transform="translate(-157.206 -68.554)" fill="#193566"/>
    <path id="Path_14" data-name="Path 14" d="M576.385,411.343c-41.463,0-125.887-99.73-129.814-104.4l-5.557-6.606,7.879,3.531c5.749,2.577,140.829,63.466,143.785,93.964.392,4.045-1.384,7.582-5.133,10.229a18.882,18.882,0,0,1-11.159,3.278ZM455.415,311.189c32.6,37.4,105.133,111.1,129.849,93.647,2.632-1.857,3.738-3.961,3.481-6.62C586.618,376.288,498.347,331.072,455.415,311.189Z" transform="translate(-157.206 -68.554)" fill="#3f3d56"/>
    <path id="Path_15" data-name="Path 15" d="M596.284,359.026s71.136,29.64,55.328,49.4S596.284,359.026,596.284,359.026Z" transform="translate(-157.206 -68.554)" fill="#193566"/>
    <path id="Path_16" data-name="Path 16" d="M463.892,335.314s148.2,162.032,134.368,171.912S463.892,335.314,463.892,335.314Z" transform="translate(-157.206 -68.554)" fill="#193566"/>
    <path id="Path_17" data-name="Path 17" d="M436.228,323.458s62.4,103.92,49.662,114.023S436.228,323.458,436.228,323.458Z" transform="translate(-157.206 -68.554)" fill="#193566"/>
    <path id="Path_18" data-name="Path 18" d="M506.853,476.409a7.308,7.308,0,0,1-2.289-.384c-22.874-7.514-68.979-142.5-74.16-157.864L425.8,304.495l8.114,11.923c.241.356,24.493,36.052,46.015,72.982,39.786,68.27,36.489,81.694,30.547,85.853A6.221,6.221,0,0,1,506.853,476.409ZM439.175,331.455c16.817,47.739,50.674,135.577,66.622,140.817a2.505,2.505,0,0,0,2.41-.257c3.265-2.285,6.713-14.715-31.687-80.61-13.624-23.379-28.351-46.269-37.345-59.952Z" transform="translate(-157.206 -68.554)" fill="#3f3d56"/>
    <path id="Path_19" data-name="Path 19" d="M409.831,319.506s-56.157,165.7-21.7,163.995S409.831,319.506,409.831,319.506Z" transform="translate(-157.206 -68.554)" fill="#193566"/>
    <path id="Path_20" data-name="Path 20" d="M374.156,511.193c-6.048,0-10.7-2.364-13.832-7.034-22.232-33.135,43.626-179.265,46.44-185.47l3-6.622.76,7.232c.623,5.917,14.886,145.366-17.423,182.62-5.108,5.887-11.185,9-18.06,9.257C374.746,511.188,374.449,511.193,374.156,511.193Zm33.137-183.908c-13.02,29.937-62.072,147.271-43.686,174.672,2.5,3.736,6.2,5.467,11.293,5.27,5.82-.216,10.8-2.8,15.221-7.9,27.008-31.141,19.712-141.955,17.172-172.044Z" transform="translate(-157.206 -68.554)" fill="#3f3d56"/>
    <path id="Path_21" data-name="Path 21" d="M390.435,327.743S296.17,435.558,304.8,446.913,390.435,327.743,390.435,327.743Z" transform="translate(-157.206 -68.554)" fill="#193566"/>
    <path id="Path_22" data-name="Path 22" d="M276.438,486.217a5.52,5.52,0,0,1-3.456-1.144,6.086,6.086,0,0,1-2.242-4.492C268.372,453.8,393.85,314.23,399.192,308.3l12.632-14.015-9.453,16.329c-4.029,6.958-98.958,170.476-124.521,175.459a7.386,7.386,0,0,1-1.411.142ZM388.8,325.926c-41.573,47.217-115.766,135.713-114.122,154.307a2.163,2.163,0,0,0,.733,1.721,1.924,1.924,0,0,0,1.683.241c17.667-3.443,79.38-101.866,111.706-156.268Z" transform="translate(-157.206 -68.554)" fill="#3f3d56"/>
    <path id="Path_23" data-name="Path 23" d="M362.142,255.143s-82.183-97.076-158.179-87.668S362.142,255.143,362.142,255.143Z" transform="translate(-157.206 -68.554)" fill="#193566"/>
    <path id="Path_24" data-name="Path 24" d="M373.1,259.679l-6.468-1.478c-.519-.119-52.461-12.032-103.813-27.229-105.156-31.119-105.5-45.429-105.606-50.13-.135-5.673,5.64-10.061,17.657-13.415,44.593-12.447,94.944,12.071,129.32,34.837a430,430,0,0,1,64.3,52.639ZM200.385,168a90.662,90.662,0,0,0-24.459,3.233c-9.606,2.68-14.849,6.059-14.768,9.514.45,18.972,117.068,52.8,199.539,72.027C341.2,234.074,267.548,168,200.385,168Z" transform="translate(-157.206 -68.554)" fill="#3f3d56"/>
    <path id="Path_25" data-name="Path 25" d="M297.908,248.37s-108.68-7.9-100.776,11.856S297.908,248.37,297.908,248.37Z" transform="translate(-157.206 -68.554)" fill="#193566"/>
    <path id="Path_26" data-name="Path 26" d="M325.572,175.258s-5.928-27.664-15.808-21.736S325.572,175.258,325.572,175.258Z" transform="translate(-157.206 -68.554)" fill="#193566"/>
    <path id="Path_27" data-name="Path 27" d="M425.688,194.832S452.8,80.893,440.514,80.475,425.688,194.832,425.688,194.832Z" transform="translate(-157.206 -68.554)" fill="#193566"/>
    <path id="Path_28" data-name="Path 28" d="M420.642,220.058l-.222-15.131c-.071-4.86-1.578-119.207,13.288-134.3a6.239,6.239,0,0,1,4.5-2.077,5.26,5.26,0,0,1,4.234,2.168c11.439,14.652-15.065,122.416-18.126,134.656ZM438.2,72.506c-.2,0-.8,0-1.681.9-9.818,9.965-12.1,76.256-12.23,115.243,10.883-46.455,21.975-106.6,15.03-115.494A1.333,1.333,0,0,0,438.2,72.506Z" transform="translate(-157.206 -68.554)" fill="#3f3d56"/>
    <path id="Path_29" data-name="Path 29" d="M550.836,210.826s11.856-29.64,23.712-21.736S550.836,210.826,550.836,210.826Z" transform="translate(-157.206 -68.554)" fill="#193566"/>
    <path id="Path_30" data-name="Path 30" d="M438.2,473.634S422.4,590.218,452.036,588.242,438.2,473.634,438.2,473.634Z" transform="translate(-157.206 -68.554)" fill="#193566"/>
    <path id="Path_31" data-name="Path 31" d="M520.894,447.121s-15.146-25.243-15.146-42.913c0,0-26.505-27.767-18.932-35.34S510.8,390.324,510.8,390.324,480.505,356.246,489.34,351.2,527.2,384.013,527.2,384.013l10.1-5.049s-21.447-52.9-6.311-54.272c6.942-.631,22.719,50.486,22.719,50.486l16.408,41.651s6.311,15.146,3.786,23.981a166.582,166.582,0,0,0-3.786,16.408Z" transform="translate(-157.206 -68.554)" fill="#ffb9b9"/>
    <path id="Path_32" data-name="Path 32" d="M560.021,453.432s8.835-13.884,5.638-35.083-20.783-33.073-20.783-33.073-11.359,8.835,0,31.554c0,0-13.884,12.621-2.524,32.816" transform="translate(-157.206 -68.554)" opacity="0.1"/>
    <path id="Path_33" data-name="Path 33" d="M565.069,453.432s8.835-13.884,5.638-35.083-20.783-33.073-20.783-33.073-11.359,8.835,0,31.554c0,0-13.884,12.621-2.524,32.816" transform="translate(-157.206 -68.554)" fill="#ffb9b9"/>
    <path id="Path_34" data-name="Path 34" d="M530.36,383.382l-6.942-10.728s-32.816-5.049-29.03,6.311,18.932,6.311,18.932,6.311l8.835,8.835Z" transform="translate(-157.206 -68.554)" opacity="0.1"/>
    <path id="Path_35" data-name="Path 35" d="M536.04,382.751l-10.1-13.884s-32.816-5.049-29.03,6.311,18.932,6.311,18.932,6.311l8.835,8.835Z" transform="translate(-157.206 -68.554)" fill="#ffb9b9"/>
    <path id="Path_36" data-name="Path 36" d="M612.963,480.17l-6.311,50.486,98.448,6.311V476.384Z" fill="#ffb9b9"/>
    <path id="Path_37" data-name="Path 37" d="M1042.79,831.446,962.955,671.77c-4.77-15.794-19.664-41.517-65.94-58.045l-34.709-29.362-25.874-.929-103.5-15.146s-79.516-5.049-131.264,26.505l-13.883-6.311S565.069,507.7,575.167,449.645L517.107,444.6S485.554,582.171,500.7,623.822s70.681,71.943,70.681,71.943L620.6,744.989l18.932,85.826H934.88l4.7-22.519,23.068,22.519Z" transform="translate(-157.206 -68.554)" fill="#cfcce0"/>
    <path id="Path_38" data-name="Path 38" d="M931.166,544.944c-92.988,25.11-184.381,26.885-273.844.387-10.516-3.115-17.706-12.348-17.706-22.828V261.167c0-11.693,8.9-21.668,21.023-23.57,84.393-13.235,173.8-12.21,267.3.494,12.355,1.679,21.527,11.768,21.527,23.644V521.95C949.471,532.65,941.983,542.023,931.166,544.944Z" transform="translate(-157.206 -68.554)" fill="#cfcce0"/>
    <path id="Path_39" data-name="Path 39" d="M739.4,366.112s-21.388-31.259-8.226-39.485,32.9,14.807,32.9,14.807,24.678-21.388,37.84-13.162-13.162,37.84-13.162,37.84,19.742,4.936,21.388,18.1,8.226,47.711-19.742,49.356c-14.983.881-23.356-3.431-27.9-7.625a9.169,9.169,0,0,0-12.077-.143c-9.484,7.99-26.565,17.2-38.992-5.393C706.492,385.855,739.4,366.112,739.4,366.112Z" transform="translate(-157.206 -68.554)" fill="#3f3d56"/>
    <path id="Path_40" data-name="Path 40" d="M897.336,369.4s21.388-31.259,8.226-39.485-32.9,14.807-32.9,14.807-24.678-21.388-37.84-13.162S847.98,369.4,847.98,369.4s-19.742,4.936-21.388,18.1-8.226,47.711,19.742,49.356c14.983.881,23.356-3.431,27.9-7.625a9.169,9.169,0,0,1,12.077-.143c9.484,7.99,26.565,17.2,38.992-5.393C930.24,389.145,897.336,369.4,897.336,369.4Z" transform="translate(-157.206 -68.554)" fill="#3f3d56"/>
    <path id="Path_41" data-name="Path 41" d="M713.431,454.835s30.862,24.848,96.672,23.281,87.092-4.253,101.159-19.764,18.236,2.4,13.868,14.147-9.978,31.783-42.763,35.032c-21.583,2.138-68.233,2.645-97.59,2.742A150.031,150.031,0,0,1,718.811,495.6q-.409-.2-.814-.4a37.348,37.348,0,0,1-20.809-33.474c0-5.534.977-8.525,4.579-9.615C708.26,450.146,713.431,454.835,713.431,454.835Z" transform="translate(-157.206 -68.554)" fill="#3f3d56"/>
    <path id="Path_42" data-name="Path 42" d="M807.837,568.673A498.467,498.467,0,0,1,659.5,546.17,28.978,28.978,0,0,1,639.005,518.4V212.246a28.958,28.958,0,0,1,24.333-28.671c90.637-14.939,191-14.745,298.3.576a29.181,29.181,0,0,1,24.918,28.761V517.755a29.214,29.214,0,0,1-21.185,27.97c-52.543,14.911-104.487,22.629-154.391,22.939C809.934,568.67,808.881,568.673,807.837,568.673Zm-3.5-394.015a865.241,865.241,0,0,0-140.653,11.033,26.819,26.819,0,0,0-22.537,26.554V518.4a26.84,26.84,0,0,0,18.983,25.719c95.892,29.85,198.389,29.7,304.647-.46l.293,1.032-.293-1.032a27.06,27.06,0,0,0,19.627-25.907V212.911a27.025,27.025,0,0,0-23.076-26.637A1112.344,1112.344,0,0,0,804.34,174.658Z" transform="translate(-157.206 -68.554)" fill="#3f3d56"/>
    <path id="Path_43" data-name="Path 43" d="M797.75,220.052c-23.635,0-43.859-1.06-60.419-2.5-52.083-4.517-80.149-13.635-80.427-13.726l.672-2.037c.276.091,28.172,9.145,80.04,13.635,47.872,4.146,126.54,5.138,229.435-13.672l.385,2.111C899.838,216.223,842.652,220.052,797.75,220.052Z" transform="translate(-157.206 -68.554)" fill="#3f3d56"/>
  </g>
</svg>
